#N canvas 0 23 799 586 10;
#N canvas 0 23 721 549 ----------- 0;
#X obj 57 53 inlet~;
#X obj 61 368 outlet~;
#X obj 190 53 inlet~;
#X obj 134 99 sig~ 2;
#X obj 133 134 pow~;
#X obj 134 159 *~ 0.5;
#X text 26 26 --Change Bit--;
#X text 220 198 Change Bit;
#X text 235 214 Change the bit depth;
#X text 236 228 without bit twiddling.;
#X text 236 243 Allows for funky settings;
#X text 236 258 like 12.7 bit-depth.;
#X obj 58 164 +~ 1;
#X obj 59 189 *~;
#X obj 78 218 wrap~;
#X obj 60 246 -~;
#X obj 61 279 -~;
#X obj 61 328 /~;
#X obj 190 99 clip~ 1 32;
#X text 237 273 Ranges from 1 - 32;
#X text 268 100 <--between 1 and 32 bit;
#X text 68 74 Signal;
#X text 200 74 BitDepth;
#X connect 0 0 12 0;
#X connect 2 0 18 0;
#X connect 3 0 4 0;
#X connect 4 0 5 0;
#X connect 5 0 13 1;
#X connect 5 0 16 1;
#X connect 5 0 17 1;
#X connect 12 0 13 0;
#X connect 13 0 15 0;
#X connect 13 0 14 0;
#X connect 14 0 15 1;
#X connect 15 0 16 0;
#X connect 16 0 17 0;
#X connect 17 0 1 0;
#X connect 18 0 4 1;
#X restore 179 126 pd -----------;
#X obj 311 110 +~ 1;
#N canvas 0 23 450 300 --------- 0;
#X obj 83 195 samphold~;
#X obj 82 56 inlet~;
#X obj 143 56 inlet~;
#X obj 83 223 outlet~;
#X text 141 38 Sample Rate;
#X text 82 38 Signal;
#X obj 143 103 *~ 22500;
#X obj 143 145 phasor~;
#X connect 0 0 3 0;
#X connect 1 0 0 0;
#X connect 2 0 6 0;
#X connect 6 0 7 0;
#X connect 7 0 0 1;
#X restore 169 99 pd ---------;
#X obj 179 267 dac~;
#X obj 169 33 phasor~ 0.1;
#X obj 311 74 *~ 7;
#X obj 238 74 phasor~ 1;
#X obj 311 36 phasor~ 100;
#X connect 0 0 3 0;
#X connect 0 0 3 1;
#X connect 1 0 0 1;
#X connect 2 0 0 0;
#X connect 4 0 2 0;
#X connect 5 0 1 0;
#X connect 6 0 2 1;
#X connect 7 0 5 0;
