#N canvas 27 23 1440 765 10;
#X obj 106 90 phasor~ 1;
#X obj 166 145 samphold~;
#X obj 55 144 samphold~;
#X obj 106 65 *~ 1;
#X obj 106 40 +~ 1;
#X floatatom 167 50 5 0 0 0 - - -, f 5;
#X floatatom 167 25 5 0 0 0 - - -, f 5;
#X obj 361 91 phasor~ 1;
#X obj 421 146 samphold~;
#X obj 310 145 samphold~;
#X obj 361 66 *~ 1;
#X obj 361 41 +~ 1;
#X floatatom 422 51 5 0 0 0 - - -, f 5;
#X floatatom 422 26 5 0 0 0 - - -, f 5;
#X obj 616 92 phasor~ 1;
#X obj 676 147 samphold~;
#X obj 565 146 samphold~;
#X obj 616 67 *~ 1;
#X obj 616 42 +~ 1;
#X floatatom 678 52 5 0 0 0 - - -, f 5;
#X floatatom 678 27 5 0 0 0 - - -, f 5;
#X obj 871 93 phasor~ 1;
#X obj 931 148 samphold~;
#X obj 820 147 samphold~;
#X obj 871 68 *~ 1;
#X obj 871 43 +~ 1;
#X floatatom 933 53 5 0 0 0 - - -, f 5;
#X floatatom 933 28 5 0 0 0 - - -, f 5;
#X obj 1126 94 phasor~ 1;
#X obj 1186 149 samphold~;
#X obj 1075 148 samphold~;
#X obj 1126 69 *~ 1;
#X obj 1126 44 +~ 1;
#X floatatom 1188 54 5 0 0 0 - - -, f 5;
#X floatatom 1188 29 5 0 0 0 - - -, f 5;
#X obj 55 162 s~ 1a;
#X obj 166 163 s~ 1b;
#X obj 310 163 s~ 2a;
#X obj 421 164 s~ 2b;
#X obj 421 91 r~ 1a;
#X obj 676 92 r~ 2a;
#X obj 931 93 r~ 3a;
#X obj 1186 94 r~ 4a;
#X obj 565 164 s~ 3a;
#X obj 676 165 s~ 3b;
#X obj 820 165 s~ 4a;
#X obj 931 166 s~ 4b;
#X obj 1075 166 s~ 5a;
#X obj 1186 167 s~ 5b;
#X obj 106 15 r~ 1b;
#X obj 361 16 r~ 2b;
#X obj 616 17 r~ 3b;
#X obj 871 18 r~ 4b;
#X obj 1126 18 r~ 5b;
#X obj 166 90 r~ 5a;
#X obj 1246 149 expr~ $v1>0.5;
#X obj 991 148 expr~ $v1>0.5;
#X obj 736 147 expr~ $v1>0.5;
#X obj 481 146 expr~ $v1>0.5;
#X obj 226 145 expr~ $v1>0.5;
#X obj 421 618 dac~;
#X obj 421 267 expr~ (($v1/8)+($v2/4)+($v3/2));
#X obj 421 507 osc~;
#X obj 421 452 +~;
#X obj 421 347 *~ 1000;
#X obj 771 400 *~;
#X obj 786 308 r~ 5b;
#X obj 714 308 *~ 1000;
#X obj 714 342 osc~ 100;
#X obj 786 372 lop~ 2;
#X obj 786 342 *~ 10000;
#X connect 0 0 1 1;
#X connect 0 0 2 1;
#X connect 0 0 9 0;
#X connect 1 0 36 0;
#X connect 1 0 59 0;
#X connect 2 0 35 0;
#X connect 3 0 0 0;
#X connect 4 0 3 0;
#X connect 5 0 3 1;
#X connect 6 0 4 1;
#X connect 7 0 8 1;
#X connect 7 0 9 1;
#X connect 7 0 16 0;
#X connect 8 0 38 0;
#X connect 8 0 58 0;
#X connect 8 0 61 0;
#X connect 9 0 37 0;
#X connect 10 0 7 0;
#X connect 11 0 10 0;
#X connect 12 0 10 1;
#X connect 13 0 11 1;
#X connect 14 0 15 1;
#X connect 14 0 16 1;
#X connect 14 0 23 0;
#X connect 15 0 44 0;
#X connect 15 0 57 0;
#X connect 15 0 61 1;
#X connect 16 0 43 0;
#X connect 17 0 14 0;
#X connect 18 0 17 0;
#X connect 19 0 17 1;
#X connect 20 0 18 1;
#X connect 21 0 22 1;
#X connect 21 0 23 1;
#X connect 21 0 30 0;
#X connect 22 0 46 0;
#X connect 22 0 56 0;
#X connect 22 0 61 2;
#X connect 23 0 45 0;
#X connect 24 0 21 0;
#X connect 25 0 24 0;
#X connect 26 0 24 1;
#X connect 27 0 25 1;
#X connect 28 0 29 1;
#X connect 28 0 30 1;
#X connect 28 0 2 0;
#X connect 29 0 48 0;
#X connect 29 0 55 0;
#X connect 30 0 47 0;
#X connect 31 0 28 0;
#X connect 32 0 31 0;
#X connect 33 0 31 1;
#X connect 34 0 32 1;
#X connect 39 0 8 0;
#X connect 40 0 15 0;
#X connect 41 0 22 0;
#X connect 42 0 29 0;
#X connect 49 0 4 0;
#X connect 50 0 11 0;
#X connect 51 0 18 0;
#X connect 52 0 25 0;
#X connect 53 0 32 0;
#X connect 54 0 1 0;
#X connect 61 0 64 0;
#X connect 62 0 60 0;
#X connect 62 0 60 1;
#X connect 63 0 62 0;
#X connect 64 0 63 0;
#X connect 65 0 63 1;
#X connect 66 0 67 0;
#X connect 66 0 70 0;
#X connect 67 0 68 0;
#X connect 68 0 65 0;
#X connect 69 0 65 1;
#X connect 70 0 69 0;
