#N canvas 0 23 1131 815 10;
#X obj 218 92 phasor~;
#X obj 749 711 send~ a;
#X obj 293 127 receive~ a;
#X obj 218 161 expr~ $v1>$v2;
#X floatatom 218 48 5 0 0 0 - - -, f 5;
#X obj 218 640 dac~;
#X obj 749 659 *~;
#X obj 797 659 *~;
#X obj 812 597 tgl 15 0 empty empty empty 17 7 0 10 -262144 -1 -1 0
1;
#X obj 812 617 - 1;
#X obj 812 638 abs;
#X obj 749 545 wrap~;
#X obj 725 524 *~;
#X obj 749 524 *~;
#X obj 764 461 tgl 15 0 empty empty empty 17 7 0 10 -262144 -1 -1 1
1;
#X obj 764 481 - 1;
#X obj 764 502 abs;
#X obj 797 545 wrap~;
#X obj 773 524 *~;
#X obj 797 524 *~;
#X obj 812 461 tgl 15 0 empty empty empty 17 7 0 10 -262144 -1 -1 0
1;
#X obj 812 481 - 1;
#X obj 812 502 abs;
#X obj 234 417 *~ 1000;
#X obj 234 284 osc~ 1;
#X obj 218 508 vcf~ 1;
#X obj 472 389 hsl 128 15 0.2 20 1 0 empty empty empty -2 -8 0 10 -262144
-1 -1 4400 1;
#X floatatom 469 431 5 0 0 0 - - -, f 5;
#X floatatom 273 389 5 0 0 0 - - -, f 5;
#X floatatom 234 252 5 0 0 0 - - -, f 5;
#X text 88 92 Sawtooth oscillator;
#X text 185 160 PWM;
#X text 376 584 Process the filter feeeback in various ways before
sending it to the PWM input;
#X text 371 127 Filter feedback controls PWM;
#X text 611 389 Q (uses log slider);
#X text 272 361 Scale LFO to filter cutoff;
#X text 273 252 LFO frequency (try very slow rates);
#X connect 0 0 3 0;
#X connect 2 0 3 1;
#X connect 3 0 25 0;
#X connect 4 0 0 0;
#X connect 6 0 1 0;
#X connect 7 0 1 0;
#X connect 8 0 9 0;
#X connect 8 0 6 1;
#X connect 9 0 10 0;
#X connect 10 0 7 1;
#X connect 11 0 6 0;
#X connect 12 0 6 0;
#X connect 13 0 11 0;
#X connect 14 0 15 0;
#X connect 14 0 12 1;
#X connect 15 0 16 0;
#X connect 16 0 13 1;
#X connect 17 0 7 0;
#X connect 18 0 7 0;
#X connect 19 0 17 0;
#X connect 20 0 21 0;
#X connect 20 0 18 1;
#X connect 21 0 22 0;
#X connect 22 0 19 1;
#X connect 23 0 25 1;
#X connect 24 0 23 0;
#X connect 25 0 5 0;
#X connect 25 0 5 1;
#X connect 25 0 12 0;
#X connect 25 0 13 0;
#X connect 25 1 18 0;
#X connect 25 1 19 0;
#X connect 26 0 27 0;
#X connect 27 0 25 2;
#X connect 28 0 23 1;
#X connect 29 0 24 0;
