#N canvas 48 44 1328 738 10;
#N canvas 398 129 839 714 resonator1 0;
#X obj 130 384 inlet~;
#X obj 230 555 outlet~;
#X obj 200 421 mtof;
#X obj 315 376 mtof;
#X msg 266 371 1000;
#X obj 287 411 /;
#X obj 384 54 inlet;
#X obj 234 218 - 1;
#X obj 202 289 *;
#X obj 170 247 float;
#X obj 188 194 t b f;
#X obj 386 141 - 63;
#X obj 387 164 / 64;
#X obj 283 230 t b f;
#X obj 302 445 +;
#X obj 388 186 - 1;
#X obj 387 209 abs;
#X obj 321 344 float;
#X obj 341 302 t b b f;
#X obj 384 238 *;
#X obj 378 261 * -0.2;
#X text 92 31 resonator;
#X obj 228 54 inlet;
#X obj 273 54 inlet;
#X obj 328 55 inlet;
#X text 227 36 damp;
#X text 278 38 feedback;
#X text 338 39 md;
#X text 385 36 pitch;
#N canvas 0 23 450 300 ----------- 0;
#X obj 90 42 inlet~;
#X obj 383 286 outlet~;
#X obj 164 268 +~;
#X obj 193 239 *~;
#X obj -6 28 block~ 1;
#X obj 320 135 lop~;
#X obj 364 50 inlet;
#X obj 260 49 inlet;
#X obj 175 49 inlet;
#X text 90 20 in;
#X text 166 30 polarity;
#X text 258 28 delaytime;
#X text 357 29 damping freq;
#X obj 269 103 vd~ del1;
#X obj 168 291 delwrite~ del1 500;
#X connect 0 0 2 0;
#X connect 2 0 14 0;
#X connect 3 0 2 1;
#X connect 5 0 3 1;
#X connect 6 0 5 1;
#X connect 7 0 13 0;
#X connect 8 0 3 0;
#X connect 13 0 1 0;
#X connect 13 0 5 0;
#X restore 231 494 pd -----------;
#X connect 0 0 29 0;
#X connect 2 0 29 3;
#X connect 3 0 5 1;
#X connect 4 0 5 0;
#X connect 5 0 14 0;
#X connect 6 0 13 0;
#X connect 7 0 8 1;
#X connect 8 0 29 1;
#X connect 9 0 8 0;
#X connect 10 0 9 0;
#X connect 10 1 7 0;
#X connect 11 0 12 0;
#X connect 12 0 15 0;
#X connect 13 0 4 0;
#X connect 13 1 17 0;
#X connect 14 0 29 2;
#X connect 15 0 16 0;
#X connect 16 0 19 1;
#X connect 16 0 19 0;
#X connect 17 0 3 0;
#X connect 18 0 4 0;
#X connect 18 1 17 0;
#X connect 18 2 14 1;
#X connect 19 0 20 0;
#X connect 20 0 18 0;
#X connect 22 0 11 0;
#X connect 22 0 2 0;
#X connect 23 0 9 0;
#X connect 24 0 10 0;
#X connect 29 0 1 0;
#X coords 0 714 1 713 140 40 0;
#X restore 167 421 pd resonator1;
#N canvas 1 83 450 300 normalizer1 0;
#X obj 93 104 /~;
#X obj 75 45 sig~ 1;
#X obj 144 219 *~;
#X obj 98 186 clip~ 0 1;
#X obj 160 58 inlet~;
#X obj 144 248 outlet~;
#X obj 93 130 abs~;
#X text 149 16 scale signales > -1..1;
#X connect 0 0 6 0;
#X connect 1 0 0 0;
#X connect 2 0 5 0;
#X connect 3 0 2 0;
#X connect 4 0 0 1;
#X connect 4 0 2 1;
#X connect 6 0 3 0;
#X restore 167 197 pd normalizer1;
#X obj 167 93 pink~;
#X obj 563 587 dac~;
#X obj 188 322 hsl 100 8 0.6 0.999 1 1 empty empty fb -18 4 0 10 -262144
-1 -1 9900 1;
#X obj 188 304 hsl 100 8 75 127 1 1 empty empty dp -18 4 0 10 -262144
-1 -1 9900 1;
#X obj 223 349 tgl 10 1 empty empty md 0 -6 0 10 -262144 -1 -1 2 2
;
#X obj 242 372 nbx 5 14 0 127 0 1 empty empty p -8 6 0 10 -262144 -1
-1 51.8832 256;
#X obj 442 371 nbx 5 14 0 127 0 1 empty empty p -8 6 0 10 -262144 -1
-1 46.2905 256;
#X obj 407 322 hsl 100 8 0.6 0.999 1 1 empty empty fb -18 4 0 10 -262144
-1 -1 9900 1;
#X obj 407 304 hsl 100 8 75 127 1 1 empty empty dp -18 4 0 10 -262144
-1 -1 9300 1;
#X obj 423 348 tgl 10 1 empty empty md 0 -6 0 10 -262144 -1 -1 2 2
;
#N canvas 398 129 839 714 resonator2 0;
#X obj 130 384 inlet~;
#X obj 230 555 outlet~;
#X obj 200 421 mtof;
#X obj 315 376 mtof;
#X msg 266 371 1000;
#X obj 287 411 /;
#X obj 384 54 inlet;
#X obj 234 218 - 1;
#X obj 202 289 *;
#X obj 170 247 float;
#X obj 188 194 t b f;
#X obj 386 141 - 63;
#X obj 387 164 / 64;
#X obj 283 230 t b f;
#X obj 302 445 +;
#X obj 388 186 - 1;
#X obj 387 209 abs;
#X obj 321 344 float;
#X obj 341 302 t b b f;
#X obj 384 238 *;
#X obj 378 261 * -0.2;
#X text 92 31 resonator;
#X obj 228 54 inlet;
#X obj 273 54 inlet;
#X obj 328 55 inlet;
#X text 227 36 damp;
#X text 278 38 feedback;
#X text 338 39 md;
#X text 385 36 pitch;
#N canvas 0 23 450 300 ----------- 0;
#X obj 90 42 inlet~;
#X obj 383 286 outlet~;
#X obj 164 268 +~;
#X obj 193 239 *~;
#X obj -6 28 block~ 1;
#X obj 320 135 lop~;
#X obj 364 50 inlet;
#X obj 260 49 inlet;
#X obj 175 49 inlet;
#X text 90 20 in;
#X text 166 30 polarity;
#X text 258 28 delaytime;
#X text 357 29 damping freq;
#X obj 269 103 vd~ del2;
#X obj 168 291 delwrite~ del2 500;
#X connect 0 0 2 0;
#X connect 2 0 14 0;
#X connect 3 0 2 1;
#X connect 5 0 3 1;
#X connect 6 0 5 1;
#X connect 7 0 13 0;
#X connect 8 0 3 0;
#X connect 13 0 1 0;
#X connect 13 0 5 0;
#X restore 231 494 pd -----------;
#X connect 0 0 29 0;
#X connect 2 0 29 3;
#X connect 3 0 5 1;
#X connect 4 0 5 0;
#X connect 5 0 14 0;
#X connect 6 0 13 0;
#X connect 7 0 8 1;
#X connect 8 0 29 1;
#X connect 9 0 8 0;
#X connect 10 0 9 0;
#X connect 10 1 7 0;
#X connect 11 0 12 0;
#X connect 12 0 15 0;
#X connect 13 0 4 0;
#X connect 13 1 17 0;
#X connect 14 0 29 2;
#X connect 15 0 16 0;
#X connect 16 0 19 1;
#X connect 16 0 19 0;
#X connect 17 0 3 0;
#X connect 18 0 4 0;
#X connect 18 1 17 0;
#X connect 18 2 14 1;
#X connect 19 0 20 0;
#X connect 20 0 18 0;
#X connect 22 0 11 0;
#X connect 22 0 2 0;
#X connect 23 0 9 0;
#X connect 24 0 10 0;
#X connect 29 0 1 0;
#X coords 0 714 1 713 140 40 0;
#X restore 367 421 pd resonator2;
#X msg 466 113 52.99 46.02 40.79 60.98 67.98;
#X obj 638 371 nbx 5 14 0 127 0 1 empty empty p -8 6 0 10 -262144 -1
-1 42.3397 256;
#X obj 603 322 hsl 100 8 0.6 0.999 1 1 empty empty fb -18 4 0 10 -262144
-1 -1 9900 1;
#X obj 603 304 hsl 100 8 75 127 1 1 empty empty dp -18 4 0 10 -262144
-1 -1 9600 1;
#X obj 619 348 tgl 10 1 empty empty md 0 -6 0 10 -262144 -1 -1 2 2
;
#N canvas 398 129 839 714 resonator3 0;
#X obj 130 384 inlet~;
#X obj 230 555 outlet~;
#X obj 200 421 mtof;
#X obj 315 376 mtof;
#X msg 266 371 1000;
#X obj 287 411 /;
#X obj 384 54 inlet;
#X obj 234 218 - 1;
#X obj 202 289 *;
#X obj 170 247 float;
#X obj 188 194 t b f;
#X obj 386 141 - 63;
#X obj 387 164 / 64;
#X obj 283 230 t b f;
#X obj 302 445 +;
#X obj 388 186 - 1;
#X obj 387 209 abs;
#X obj 321 344 float;
#X obj 341 302 t b b f;
#X obj 384 238 *;
#X obj 378 261 * -0.2;
#X text 92 31 resonator;
#X obj 228 54 inlet;
#X obj 273 54 inlet;
#X obj 328 55 inlet;
#X text 227 36 damp;
#X text 278 38 feedback;
#X text 338 39 md;
#X text 385 36 pitch;
#N canvas 0 23 450 300 ----------- 0;
#X obj 90 42 inlet~;
#X obj 383 286 outlet~;
#X obj 164 268 +~;
#X obj 193 239 *~;
#X obj -6 28 block~ 1;
#X obj 320 135 lop~;
#X obj 364 50 inlet;
#X obj 260 49 inlet;
#X obj 175 49 inlet;
#X text 90 20 in;
#X text 166 30 polarity;
#X text 258 28 delaytime;
#X text 357 29 damping freq;
#X obj 269 103 vd~ del3;
#X obj 168 291 delwrite~ del3 500;
#X connect 0 0 2 0;
#X connect 2 0 14 0;
#X connect 3 0 2 1;
#X connect 5 0 3 1;
#X connect 6 0 5 1;
#X connect 7 0 13 0;
#X connect 8 0 3 0;
#X connect 13 0 1 0;
#X connect 13 0 5 0;
#X restore 231 494 pd -----------;
#X connect 0 0 29 0;
#X connect 2 0 29 3;
#X connect 3 0 5 1;
#X connect 4 0 5 0;
#X connect 5 0 14 0;
#X connect 6 0 13 0;
#X connect 7 0 8 1;
#X connect 8 0 29 1;
#X connect 9 0 8 0;
#X connect 10 0 9 0;
#X connect 10 1 7 0;
#X connect 11 0 12 0;
#X connect 12 0 15 0;
#X connect 13 0 4 0;
#X connect 13 1 17 0;
#X connect 14 0 29 2;
#X connect 15 0 16 0;
#X connect 16 0 19 1;
#X connect 16 0 19 0;
#X connect 17 0 3 0;
#X connect 18 0 4 0;
#X connect 18 1 17 0;
#X connect 18 2 14 1;
#X connect 19 0 20 0;
#X connect 20 0 18 0;
#X connect 22 0 11 0;
#X connect 22 0 2 0;
#X connect 23 0 9 0;
#X connect 24 0 10 0;
#X connect 29 0 1 0;
#X coords 0 714 1 713 140 40 0;
#X restore 563 421 pd resonator3;
#X obj 803 374 nbx 5 14 0 127 0 1 empty empty p -8 6 0 10 -262144 -1
-1 60.7054 256;
#X obj 768 325 hsl 100 8 0.6 0.999 1 1 empty empty fb -18 4 0 10 -262144
-1 -1 9900 1;
#X obj 768 307 hsl 100 8 75 127 1 1 empty empty dp -18 4 0 10 -262144
-1 -1 8900 1;
#X obj 784 351 tgl 10 1 empty empty md 0 -6 0 10 -262144 -1 -1 2 2
;
#N canvas 398 129 839 714 resonator4 0;
#X obj 130 384 inlet~;
#X obj 230 555 outlet~;
#X obj 200 421 mtof;
#X obj 315 376 mtof;
#X msg 266 371 1000;
#X obj 287 411 /;
#X obj 384 54 inlet;
#X obj 234 218 - 1;
#X obj 202 289 *;
#X obj 170 247 float;
#X obj 188 194 t b f;
#X obj 386 141 - 63;
#X obj 387 164 / 64;
#X obj 283 230 t b f;
#X obj 302 445 +;
#X obj 388 186 - 1;
#X obj 387 209 abs;
#X obj 321 344 float;
#X obj 341 302 t b b f;
#X obj 384 238 *;
#X obj 378 261 * -0.2;
#X text 92 31 resonator;
#X obj 228 54 inlet;
#X obj 273 54 inlet;
#X obj 328 55 inlet;
#X text 227 36 damp;
#X text 278 38 feedback;
#X text 338 39 md;
#X text 385 36 pitch;
#N canvas 0 23 450 300 ----------- 0;
#X obj 90 42 inlet~;
#X obj 383 286 outlet~;
#X obj 164 268 +~;
#X obj 193 239 *~;
#X obj -6 28 block~ 1;
#X obj 320 135 lop~;
#X obj 364 50 inlet;
#X obj 260 49 inlet;
#X obj 175 49 inlet;
#X text 90 20 in;
#X text 166 30 polarity;
#X text 258 28 delaytime;
#X text 357 29 damping freq;
#X obj 269 103 vd~ del4;
#X obj 168 291 delwrite~ del4 500;
#X connect 0 0 2 0;
#X connect 2 0 14 0;
#X connect 3 0 2 1;
#X connect 5 0 3 1;
#X connect 6 0 5 1;
#X connect 7 0 13 0;
#X connect 8 0 3 0;
#X connect 13 0 1 0;
#X connect 13 0 5 0;
#X restore 231 494 pd -----------;
#X connect 0 0 29 0;
#X connect 2 0 29 3;
#X connect 3 0 5 1;
#X connect 4 0 5 0;
#X connect 5 0 14 0;
#X connect 6 0 13 0;
#X connect 7 0 8 1;
#X connect 8 0 29 1;
#X connect 9 0 8 0;
#X connect 10 0 9 0;
#X connect 10 1 7 0;
#X connect 11 0 12 0;
#X connect 12 0 15 0;
#X connect 13 0 4 0;
#X connect 13 1 17 0;
#X connect 14 0 29 2;
#X connect 15 0 16 0;
#X connect 16 0 19 1;
#X connect 16 0 19 0;
#X connect 17 0 3 0;
#X connect 18 0 4 0;
#X connect 18 1 17 0;
#X connect 18 2 14 1;
#X connect 19 0 20 0;
#X connect 20 0 18 0;
#X connect 22 0 11 0;
#X connect 22 0 2 0;
#X connect 23 0 9 0;
#X connect 24 0 10 0;
#X connect 29 0 1 0;
#X coords 0 714 1 713 140 40 0;
#X restore 728 424 pd resonator4;
#X obj 971 373 nbx 5 14 0 127 0 1 empty empty p -8 6 0 10 -262144 -1
-1 67.8517 256;
#X obj 936 324 hsl 100 8 0.6 0.999 1 1 empty empty fb -18 4 0 10 -262144
-1 -1 9900 1;
#X obj 936 306 hsl 100 8 75 127 1 1 empty empty dp -18 4 0 10 -262144
-1 -1 8600 1;
#X obj 952 350 tgl 10 1 empty empty md 0 -6 0 10 -262144 -1 -1 2 2
;
#N canvas 398 129 839 714 resonator5 0;
#X obj 130 384 inlet~;
#X obj 230 555 outlet~;
#X obj 200 421 mtof;
#X obj 315 376 mtof;
#X msg 266 371 1000;
#X obj 287 411 /;
#X obj 384 54 inlet;
#X obj 234 218 - 1;
#X obj 202 289 *;
#X obj 170 247 float;
#X obj 188 194 t b f;
#X obj 386 141 - 63;
#X obj 387 164 / 64;
#X obj 283 230 t b f;
#X obj 302 445 +;
#X obj 388 186 - 1;
#X obj 387 209 abs;
#X obj 321 344 float;
#X obj 341 302 t b b f;
#X obj 384 238 *;
#X obj 378 261 * -0.2;
#X text 92 31 resonator;
#X obj 228 54 inlet;
#X obj 273 54 inlet;
#X obj 328 55 inlet;
#X text 227 36 damp;
#X text 278 38 feedback;
#X text 338 39 md;
#X text 385 36 pitch;
#N canvas 0 23 450 300 ----------- 0;
#X obj 90 42 inlet~;
#X obj 383 286 outlet~;
#X obj 164 268 +~;
#X obj 193 239 *~;
#X obj -6 28 block~ 1;
#X obj 320 135 lop~;
#X obj 364 50 inlet;
#X obj 260 49 inlet;
#X obj 175 49 inlet;
#X text 90 20 in;
#X text 166 30 polarity;
#X text 258 28 delaytime;
#X text 357 29 damping freq;
#X obj 269 103 vd~ del5;
#X obj 168 291 delwrite~ del5 500;
#X connect 0 0 2 0;
#X connect 2 0 14 0;
#X connect 3 0 2 1;
#X connect 5 0 3 1;
#X connect 6 0 5 1;
#X connect 7 0 13 0;
#X connect 8 0 3 0;
#X connect 13 0 1 0;
#X connect 13 0 5 0;
#X restore 231 494 pd -----------;
#X connect 0 0 29 0;
#X connect 2 0 29 3;
#X connect 3 0 5 1;
#X connect 4 0 5 0;
#X connect 5 0 14 0;
#X connect 6 0 13 0;
#X connect 7 0 8 1;
#X connect 8 0 29 1;
#X connect 9 0 8 0;
#X connect 10 0 9 0;
#X connect 10 1 7 0;
#X connect 11 0 12 0;
#X connect 12 0 15 0;
#X connect 13 0 4 0;
#X connect 13 1 17 0;
#X connect 14 0 29 2;
#X connect 15 0 16 0;
#X connect 16 0 19 1;
#X connect 16 0 19 0;
#X connect 17 0 3 0;
#X connect 18 0 4 0;
#X connect 18 1 17 0;
#X connect 18 2 14 1;
#X connect 19 0 20 0;
#X connect 20 0 18 0;
#X connect 22 0 11 0;
#X connect 22 0 2 0;
#X connect 23 0 9 0;
#X connect 24 0 10 0;
#X connect 29 0 1 0;
#X coords 0 714 1 713 140 40 0;
#X restore 896 423 pd resonator5;
#X obj 592 179 unpack 0 0 0 0 0;
#X obj 563 516 *~ 0.2;
#X msg 678 113 44.97 47.98 52.02 58.99 67.05;
#X obj 577 30 tgl 15 0 empty empty empty 17 7 0 10 -262144 -1 -1 1
1;
#X obj 577 55 sel;
#X obj 577 -39 metro 20000;
#X obj 577 -17 random 2;
#X obj 577 7 bng 15 250 50 0 empty empty empty 17 7 0 10 -262144 -1
-1;
#X obj 577 -66 tgl 15 0 empty empty empty 17 7 0 10 -262144 -1 -1 1
1;
#X obj 971 241 pack 0 10000;
#X obj 971 263 line;
#X obj 803 241 pack 0 10000;
#X obj 803 263 line;
#X obj 638 240 pack 0 10000;
#X obj 638 262 line;
#X obj 442 242 pack 0 10000;
#X obj 442 264 line;
#X obj 267 242 pack 0 10000;
#X obj 267 264 line;
#X obj 167 147 bp~ 20;
#X text 790 564 after Martin Brinkman \, after David Lynch's Rabbits
\, etc.;
#X connect 0 0 30 0;
#X connect 1 0 0 0;
#X connect 1 0 12 0;
#X connect 1 0 18 0;
#X connect 1 0 23 0;
#X connect 1 0 28 0;
#X connect 2 0 48 0;
#X connect 4 0 0 2;
#X connect 5 0 0 1;
#X connect 6 0 0 3;
#X connect 7 0 0 4;
#X connect 8 0 12 4;
#X connect 9 0 12 2;
#X connect 10 0 12 1;
#X connect 11 0 12 3;
#X connect 12 0 30 0;
#X connect 13 0 29 0;
#X connect 14 0 18 4;
#X connect 15 0 18 2;
#X connect 16 0 18 1;
#X connect 17 0 18 3;
#X connect 18 0 30 0;
#X connect 19 0 23 4;
#X connect 20 0 23 2;
#X connect 21 0 23 1;
#X connect 22 0 23 3;
#X connect 23 0 30 0;
#X connect 24 0 28 4;
#X connect 25 0 28 2;
#X connect 26 0 28 1;
#X connect 27 0 28 3;
#X connect 28 0 30 0;
#X connect 29 0 46 0;
#X connect 29 1 44 0;
#X connect 29 2 42 0;
#X connect 29 3 40 0;
#X connect 29 4 38 0;
#X connect 30 0 3 0;
#X connect 30 0 3 1;
#X connect 31 0 29 0;
#X connect 32 0 33 0;
#X connect 33 0 13 0;
#X connect 33 1 31 0;
#X connect 34 0 35 0;
#X connect 35 0 36 0;
#X connect 36 0 32 0;
#X connect 37 0 34 0;
#X connect 38 0 39 0;
#X connect 39 0 24 0;
#X connect 40 0 41 0;
#X connect 41 0 19 0;
#X connect 42 0 43 0;
#X connect 43 0 14 0;
#X connect 44 0 45 0;
#X connect 45 0 8 0;
#X connect 46 0 47 0;
#X connect 47 0 7 0;
#X connect 48 0 1 0;
