#N canvas 147 98 1039 555 10;
#X floatatom 140 52 5 0 0 0 freq - -, f 5;
#X obj 140 81 mtof;
#X obj 140 100 phasor~;
#X obj 408 117 sig~;
#X floatatom 408 95 5 0 0 0 - - -, f 5;
#X obj 140 372 dac~;
#X obj 140 290 *~ 0.5;
#X floatatom 253 94 5 0 0 0 - - -, f 5;
#X obj 256 70 hsl 128 15 0 3000 0 0 empty empty empty -2 -8 0 10 -262144
-1 -1 3300 1;
#X obj 411 70 hsl 128 15 0 6 0 0 empty empty empty -2 -8 0 10 -262144
-1 -1 6100 1;
#X obj 662 120 hsl 100 15 0 0.25 0 0 empty empty empty -2 -8 0 10 -262144
-1 -1 6300 1;
#X text 250 47 cutoff frequency;
#X obj 659 145 sig~;
#X text 693 146 0-0.25;
#X text 652 96 vary slope (24dB/oct to 48dB/oct);
#X obj 253 117 sig~;
#N canvas 353 55 1004 741 flter----------------------- 0;
#X obj 350 534 block~ 1 1 1;
#X obj 49 17 inlet~;
#X obj 307 18 inlet~;
#X obj 350 553 table fb 1;
#X obj 161 556 tabsend~ fb;
#X obj 419 -63 tabreceive~ fb;
#X obj 49 556 outlet~;
#X obj 307 63 *~;
#X obj 210 18 inlet~;
#X obj 419 47 *~ -1;
#X obj 419 -24 tanh~;
#X text 492 13 safety measure;
#X obj 419 12 clip~ -1 1;
#N canvas 48 46 1094 735 -------- 0;
#X obj 205 29 inlet~;
#X obj 357 672 outlet~;
#X obj 412 674 outlet~;
#X obj 344 371 cos~;
#X obj 417 371 cos~;
#X obj 330 419 *~;
#X obj 403 421 *~;
#X text 180 236 Equal power panning using;
#X text 181 250 curves from [cos~];
#X obj 502 29 inlet~;
#X obj 417 340 +~ 0.75;
#X connect 0 0 5 0;
#X connect 0 0 6 0;
#X connect 3 0 5 1;
#X connect 4 0 6 1;
#X connect 5 0 1 0;
#X connect 6 0 2 0;
#X connect 9 0 10 0;
#X connect 9 0 3 0;
#X connect 10 0 4 0;
#X restore 49 122 pd --------;
#X obj 49 79 +~;
#X obj 729 26 inlet~;
#X obj 49 191 onepole~;
#X obj 49 214 onepole~;
#X obj 49 239 onepole~;
#X obj 49 264 onepole~;
#X obj 49 289 onepole~;
#X obj 49 313 onepole~;
#X obj 49 336 onepole~;
#X obj 49 359 onepole~;
#X connect 1 0 14 0;
#X connect 2 0 7 0;
#X connect 5 0 10 0;
#X connect 7 0 14 1;
#X connect 8 0 16 1;
#X connect 8 0 17 1;
#X connect 8 0 18 1;
#X connect 8 0 19 1;
#X connect 8 0 20 1;
#X connect 8 0 21 1;
#X connect 8 0 22 1;
#X connect 8 0 23 1;
#X connect 9 0 7 1;
#X connect 10 0 12 0;
#X connect 12 0 9 0;
#X connect 13 0 16 0;
#X connect 13 1 20 0;
#X connect 14 0 13 0;
#X connect 15 0 13 1;
#X connect 16 0 17 0;
#X connect 17 0 18 0;
#X connect 18 0 19 0;
#X connect 19 0 20 0;
#X connect 20 0 21 0;
#X connect 21 0 22 0;
#X connect 22 0 23 0;
#X connect 23 0 6 0;
#X connect 23 0 4 0;
#X restore 140 254 pd flter-----------------------;
#X text 770 502 md 2018;
#X text -168 252 Look in the subpatch to see what's going on ====>
;
#X text 409 48 resonance amount (0-6);
#X connect 0 0 1 0;
#X connect 1 0 2 0;
#X connect 2 0 16 0;
#X connect 3 0 16 2;
#X connect 4 0 3 0;
#X connect 6 0 5 0;
#X connect 6 0 5 1;
#X connect 7 0 15 0;
#X connect 8 0 7 0;
#X connect 9 0 4 0;
#X connect 10 0 12 0;
#X connect 12 0 16 3;
#X connect 15 0 16 1;
#X connect 16 0 6 0;
