#N canvas 0 23 1136 723 10;
#N canvas 153 23 1175 728 ------------------------ 1;
#X obj 35 312 samphold~;
#X obj 104 312 samphold~;
#X obj 180 312 samphold~;
#X obj 249 311 samphold~;
#X text 62 142 XOR;
#X obj 105 168 >~;
#X obj 146 143 <~;
#X obj 105 194 ==~;
#X obj 320 312 samphold~;
#X obj 390 312 samphold~;
#X obj 460 312 samphold~;
#X obj 530 312 samphold~;
#X obj 161 54 >~ 0.5;
#X obj 581 164 >~ 0.5;
#X obj 161 78 *~;
#X obj 161 103 clip~ 0 1;
#X text 385 564 3 bit DAC;
#X obj 105 219 expr~ ($v1*-1)+1;
#X obj 35 356 s~ \$1-1-sh;
#X obj 104 270 r~ \$1-1-sh;
#X obj 104 356 s~ \$1-2-sh;
#X obj 180 270 r~ \$1-2-sh;
#X obj 180 356 s~ \$1-3-sh;
#X obj 249 270 r~ \$1-3-sh;
#X obj 249 356 s~ \$1-4-sh;
#X obj 320 270 r~ \$1-4-sh;
#X obj 320 356 s~ \$1-5-sh;
#X obj 390 270 r~ \$1-5-sh;
#X obj 390 356 s~ \$1-6-sh;
#X obj 460 270 r~ \$1-6-sh;
#X obj 460 356 s~ \$1-7-sh;
#X obj 530 270 r~ \$1-7-sh;
#X obj 347 528 expr~ (($v1/8)+($v2/4)+($v3/2));
#X obj 714 328 snapshot~;
#X floatatom 714 358 5 0 0 0 - - -, f 5;
#X obj 834 328 snapshot~;
#X floatatom 834 358 5 0 0 0 - - -, f 5;
#X obj 774 328 snapshot~;
#X floatatom 774 358 5 0 0 0 - - -, f 5;
#X obj 954 328 snapshot~;
#X floatatom 954 358 5 0 0 0 - - -, f 5;
#X obj 894 328 snapshot~;
#X floatatom 894 358 5 0 0 0 - - -, f 5;
#X obj 1074 328 snapshot~;
#X floatatom 1074 358 5 0 0 0 - - -, f 5;
#X obj 1014 328 snapshot~;
#X floatatom 1014 358 5 0 0 0 - - -, f 5;
#X obj 1074 232 bang~;
#X obj 161 10 inlet~;
#X obj 581 10 inlet~;
#X obj 269 11 inlet~;
#X obj 348 615 outlet~;
#X obj 577 528 expr~ (($v1/16)+($v2/8)+($v3/4)+($v4/2));
#X obj 577 608 outlet~;
#X obj 82 613 outlet~;
#X obj 81 526 expr~ (($v1/4)+($v2/2));
#X connect 0 0 18 0;
#X connect 0 0 33 0;
#X connect 1 0 20 0;
#X connect 1 0 37 0;
#X connect 2 0 22 0;
#X connect 2 0 35 0;
#X connect 3 0 24 0;
#X connect 5 0 7 0;
#X connect 6 0 7 1;
#X connect 7 0 17 0;
#X connect 8 0 26 0;
#X connect 8 0 41 0;
#X connect 8 0 52 0;
#X connect 9 0 28 0;
#X connect 9 0 32 0;
#X connect 9 0 39 0;
#X connect 9 0 52 1;
#X connect 10 0 30 0;
#X connect 10 0 32 1;
#X connect 10 0 45 0;
#X connect 10 0 52 2;
#X connect 10 0 55 0;
#X connect 11 0 6 0;
#X connect 11 0 5 0;
#X connect 11 0 32 2;
#X connect 11 0 43 0;
#X connect 11 0 52 3;
#X connect 11 0 55 1;
#X connect 12 0 14 0;
#X connect 13 0 0 1;
#X connect 13 0 1 1;
#X connect 13 0 2 1;
#X connect 13 0 3 1;
#X connect 13 0 8 1;
#X connect 13 0 9 1;
#X connect 13 0 10 1;
#X connect 13 0 11 1;
#X connect 14 0 15 0;
#X connect 15 0 6 1;
#X connect 15 0 5 1;
#X connect 17 0 0 0;
#X connect 19 0 1 0;
#X connect 21 0 2 0;
#X connect 23 0 3 0;
#X connect 25 0 8 0;
#X connect 27 0 9 0;
#X connect 29 0 10 0;
#X connect 31 0 11 0;
#X connect 32 0 51 0;
#X connect 33 0 34 0;
#X connect 35 0 36 0;
#X connect 37 0 38 0;
#X connect 39 0 40 0;
#X connect 41 0 42 0;
#X connect 43 0 44 0;
#X connect 45 0 46 0;
#X connect 47 0 43 0;
#X connect 47 0 45 0;
#X connect 47 0 39 0;
#X connect 47 0 41 0;
#X connect 47 0 35 0;
#X connect 47 0 37 0;
#X connect 47 0 33 0;
#X connect 48 0 12 0;
#X connect 49 0 13 0;
#X connect 50 0 14 1;
#X connect 52 0 53 0;
#X connect 55 0 54 0;
#X restore 129 179 pd ------------------------;
#X obj 209 68 expr~ $v1 > 0.5;
#X obj 129 370 >~;
#X obj 208 370 <~;
#X obj 129 425 ==~;
#X obj 223 304 clip~ 0 1;
#X obj 288 249 *~;
#X obj 129 249 *~;
#X obj 208 249 *~ 1;
#X obj 403 179 -~ 1;
#X obj 403 233 abs~;
#X obj 465 409 tgl 15 0 empty empty empty 17 7 0 10 -262144 -1 -1 0
1;
#X obj 513 424 - 1;
#X obj 513 451 abs;
#X obj 444 557 dac~;
#X obj 444 481 *~ 1;
#X obj 492 481 *~ 0;
#X obj 129 465 expr~ (($v1*-1)+1)*0.75;
#X obj 129 69 phasor~ 10;
#X obj 209 40 phasor~ 5;
#X obj 403 106 phasor~ 5;
#X floatatom 129 2 5 0 0 0 - - -, f 5;
#X floatatom 209 2 5 0 0 0 - - -, f 5;
#X floatatom 288 2 5 0 0 0 - - -, f 5;
#X floatatom 403 2 5 0 0 0 - - -, f 5;
#X obj 288 106 phasor~ 10000;
#X connect 0 0 7 0;
#X connect 0 1 8 0;
#X connect 0 2 6 0;
#X connect 0 2 15 0;
#X connect 1 0 0 1;
#X connect 2 0 4 0;
#X connect 3 0 4 1;
#X connect 4 0 17 0;
#X connect 5 0 3 1;
#X connect 5 0 2 1;
#X connect 6 0 5 0;
#X connect 7 0 2 0;
#X connect 8 0 3 0;
#X connect 9 0 10 0;
#X connect 10 0 6 1;
#X connect 10 0 7 1;
#X connect 11 0 12 0;
#X connect 11 0 15 1;
#X connect 12 0 13 0;
#X connect 13 0 16 1;
#X connect 15 0 14 1;
#X connect 15 0 14 0;
#X connect 16 0 14 1;
#X connect 16 0 14 0;
#X connect 17 0 16 0;
#X connect 18 0 0 0;
#X connect 19 0 1 0;
#X connect 20 0 9 0;
#X connect 21 0 18 0;
#X connect 22 0 19 0;
#X connect 23 0 25 0;
#X connect 24 0 20 0;
#X connect 25 0 0 2;
