#N canvas 147 98 1039 555 10;
#X floatatom 140 52 5 0 0 0 freq - -, f 5;
#X obj 140 81 mtof;
#X obj 140 100 phasor~;
#X obj 408 117 sig~;
#X floatatom 408 95 5 0 0 0 - - -, f 5;
#X obj 140 372 dac~;
#X obj 140 290 *~ 0.5;
#X floatatom 253 94 5 0 0 0 - - -, f 5;
#X obj 256 70 hsl 128 15 0 3000 0 0 empty empty empty -2 -8 0 10 -262144
-1 -1 12700 1;
#X obj 411 70 hsl 128 15 0 6 0 0 empty empty empty -2 -8 0 10 -262144
-1 -1 12700 1;
#X obj 662 120 hsl 100 15 0 0.25 0 0 empty empty empty -2 -8 0 10 -262144
-1 -1 0 1;
#X text 250 47 cutoff frequency;
#X obj 659 145 sig~;
#X text 693 146 0-0.25;
#X text 652 96 vary slope (24dB/oct to 48dB/oct);
#X obj 253 117 sig~;
#N canvas 353 55 1004 741 flter----------------------- 0;
#X obj 350 534 block~ 1 1 1;
#X obj 49 17 inlet~;
#X obj 307 18 inlet~;
#X obj 350 553 table fb 1;
#X obj 161 556 tabsend~ fb;
#X obj 419 -63 tabreceive~ fb;
#X obj 49 556 outlet~;
#X obj 307 63 *~;
#X obj 210 18 inlet~;
#X obj 419 47 *~ -1;
#X text 492 13 safety measure;
#N canvas 48 46 1094 735 -------- 0;
#X obj 205 29 inlet~;
#X obj 357 672 outlet~;
#X obj 412 674 outlet~;
#X obj 344 371 cos~;
#X obj 417 371 cos~;
#X obj 330 419 *~;
#X obj 403 421 *~;
#X text 180 236 Equal power panning using;
#X text 181 250 curves from [cos~];
#X obj 502 29 inlet~;
#X obj 417 340 +~ 0.75;
#X connect 0 0 5 0;
#X connect 0 0 6 0;
#X connect 3 0 5 1;
#X connect 4 0 6 1;
#X connect 5 0 1 0;
#X connect 6 0 2 0;
#X connect 9 0 10 0;
#X connect 9 0 3 0;
#X connect 10 0 4 0;
#X restore 49 122 pd --------;
#X obj 49 79 +~;
#X obj 729 26 inlet~;
#X obj 49 191 onepole~;
#X obj 49 214 onepole~;
#X obj 49 239 onepole~;
#X obj 49 264 onepole~;
#X obj 49 289 onepole~;
#X obj 49 313 onepole~;
#X obj 49 336 onepole~;
#X obj 49 359 onepole~;
#N canvas 438 89 1002 752 (subpatch) 0;
#X obj 212 446 cos~;
#X obj 199 388 *~;
#X obj 210 421 +~ 0.25;
#X obj 95 188 *~;
#X obj 188 98 *~;
#X obj 299 269 * -1;
#X obj 193 283 *~ 2;
#X obj 293 190 t b f;
#X obj 299 230 * 2;
#X obj 353 105 abs;
#X obj 231 576 outlet~;
#X obj 353 80 - 1;
#X obj 256 42 * 4;
#X obj 353 182 * 8;
#X obj 352 58 r \$0-limit;
#X obj 353 162 r \$0-depth;
#X obj 256 19 r \$0-depth;
#X obj 163 20 r \$0-amount;
#X obj 293 427 r \$0-gain;
#X obj 340 445 loadbang;
#N canvas 0 22 462 312 rh_scalelog 0;
#X obj 20 155 exp;
#X obj 20 107 *;
#X obj 20 130 +;
#X obj 98 87 log;
#X obj 194 84 log;
#X obj 123 123 t b f;
#X obj 123 145 -;
#X obj 20 183 outlet;
#X obj 20 19 inlet;
#X obj 98 23 inlet;
#X obj 194 24 inlet;
#X connect 0 0 7 0;
#X connect 1 0 2 0;
#X connect 2 0 0 0;
#X connect 3 0 2 1;
#X connect 3 0 5 0;
#X connect 4 0 6 0;
#X connect 5 0 6 0;
#X connect 5 1 6 1;
#X connect 6 0 1 1;
#X connect 8 0 1 0;
#X connect 9 0 3 0;
#X connect 10 0 4 0;
#X restore 293 497 pd rh_scalelog;
#X msg 340 473 0.1;
#X msg 386 473 10;
#X obj 231 545 *~;
#X obj 458 394 s \$0-amount;
#X obj 457 255 vsl 15 128 0 1 0 0 empty empty empty 0 -8 0 10 -262144
-1 -1 2540 1;
#X obj 484 232 vsl 15 128 0 1 0 0 empty empty empty 0 -8 0 10 -262144
-1 -1 11430 1;
#X obj 485 371 s \$0-depth;
#X obj 511 206 vsl 15 128 0 1 0 0 empty empty empty 0 -8 0 10 -262144
-1 -1 10160 1;
#X obj 538 183 vsl 15 128 0 1 0 0 empty empty empty 0 -8 0 10 -262144
-1 -1 1905 1;
#X obj 512 345 s \$0-limit;
#X obj 539 322 s \$0-gain;
#X obj 446 146 unpack 0 0 0 0;
#X obj 442 95 loadbang;
#X obj 97 123 inlet~;
#X obj 165 46 sig~;
#X obj 303 321 expr~ $v1 < $v2;
#X obj 202 322 expr~ $v1 > $v2;
#X obj 233 358 expr~ $v1 == 0;
#X msg 445 118 0.2 0.9 0.8 0.15;
#X connect 0 0 23 0;
#X connect 1 0 2 0;
#X connect 2 0 0 0;
#X connect 3 0 6 0;
#X connect 4 0 3 1;
#X connect 5 0 36 1;
#X connect 6 0 1 0;
#X connect 6 0 36 0;
#X connect 6 0 37 0;
#X connect 7 0 8 0;
#X connect 7 1 8 1;
#X connect 8 0 5 0;
#X connect 8 0 37 1;
#X connect 9 0 7 0;
#X connect 11 0 9 0;
#X connect 12 0 4 1;
#X connect 13 0 8 0;
#X connect 14 0 11 0;
#X connect 15 0 13 0;
#X connect 16 0 12 0;
#X connect 17 0 35 0;
#X connect 18 0 20 0;
#X connect 19 0 21 0;
#X connect 19 0 22 0;
#X connect 20 0 23 1;
#X connect 21 0 20 1;
#X connect 22 0 20 2;
#X connect 23 0 10 0;
#X connect 25 0 24 0;
#X connect 26 0 27 0;
#X connect 28 0 30 0;
#X connect 29 0 31 0;
#X connect 32 0 25 0;
#X connect 32 1 26 0;
#X connect 32 2 28 0;
#X connect 32 3 29 0;
#X connect 33 0 39 0;
#X connect 34 0 3 0;
#X connect 35 0 4 0;
#X connect 36 0 38 0;
#X connect 37 0 38 0;
#X connect 38 0 1 1;
#X connect 39 0 32 0;
#X restore 419 -24 pd;
#X obj 419 12 tanh~;
#X connect 1 0 12 0;
#X connect 2 0 7 0;
#X connect 5 0 22 0;
#X connect 7 0 12 1;
#X connect 8 0 14 1;
#X connect 8 0 15 1;
#X connect 8 0 16 1;
#X connect 8 0 17 1;
#X connect 8 0 18 1;
#X connect 8 0 19 1;
#X connect 8 0 20 1;
#X connect 8 0 21 1;
#X connect 9 0 7 1;
#X connect 11 0 14 0;
#X connect 11 1 18 0;
#X connect 12 0 11 0;
#X connect 13 0 11 1;
#X connect 14 0 15 0;
#X connect 15 0 16 0;
#X connect 16 0 17 0;
#X connect 17 0 18 0;
#X connect 18 0 19 0;
#X connect 19 0 20 0;
#X connect 20 0 21 0;
#X connect 21 0 6 0;
#X connect 21 0 4 0;
#X connect 22 0 23 0;
#X connect 23 0 9 0;
#X restore 140 254 pd flter-----------------------;
#X text 770 502 md 2018;
#X text -168 252 Look in the subpatch to see what's going on ====>
;
#X text 409 48 resonance amount (0-6);
#X connect 0 0 1 0;
#X connect 1 0 2 0;
#X connect 2 0 16 0;
#X connect 3 0 16 2;
#X connect 4 0 3 0;
#X connect 6 0 5 0;
#X connect 6 0 5 1;
#X connect 7 0 15 0;
#X connect 8 0 7 0;
#X connect 9 0 4 0;
#X connect 10 0 12 0;
#X connect 12 0 16 3;
#X connect 15 0 16 1;
#X connect 16 0 6 0;
