#N canvas 444 26 684 485 10;
#X obj 91 365 *~;
#X floatatom 106 199 5 0 0 0 - - -, f 5;
#X text 129 366 one signal multiplied by another;
#X obj 91 449 dac~;
#X obj 106 234 osc~ 100;
#X obj 91 121 osc~ 500;
#X floatatom 91 86 5 0 0 0 - - -, f 5;
#X text 118 304 unipolar modulation;
#X text 153 121 carrier;
#X text 168 234 modulator;
#X connect 0 0 3 0;
#X connect 0 0 3 1;
#X connect 1 0 4 0;
#X connect 4 0 0 1;
#X connect 5 0 0 0;
#X connect 6 0 5 0;
