#N canvas 0 23 1440 816 10;
#N canvas 0 22 450 300 (subpatch) 0;
#X array \$0-array 100 float 0;
#X coords 0 1 100 -1 200 100 1;
#X restore 621 229 graph;
#X obj 527 407 loadbang;
#X obj 527 506 tabwrite~ \$0-array;
#X msg 538 443 \; pd dsp 1;
#X obj 462 423 s lb;
#X obj 938 132 wrap~;
#X obj 938 154 -~ 0.5;
#X obj 938 110 -~;
#X obj 938 431 *~;
#X obj 1045 132 wrap~;
#X obj 1045 154 -~ 0.5;
#X obj 1045 110 -~;
#X obj 1045 431 *~;
#X obj 938 463 +~;
#X obj 938 490 +~;
#X obj 1152 132 wrap~;
#X obj 1152 154 -~ 0.5;
#X obj 1152 110 -~;
#X obj 1152 431 *~;
#X floatatom 953 -110 5 0 0 0 - - -, f 5;
#X floatatom 1060 -110 5 0 0 0 - - -, f 5;
#X floatatom 1167 -110 5 0 0 0 - - -, f 5;
#N canvas 0 23 534 374 cosine 0;
#X obj 219 140 inlet~;
#X obj 225 260 outlet~;
#X obj 315 197 switch~;
#X obj 323 112 inlet;
#X msg 258 94 0;
#X msg 325 147 1;
#X obj 258 70 r stopAll;
#X obj 222 201 cos~;
#X connect 0 0 7 0;
#X connect 3 0 5 0;
#X connect 4 0 2 0;
#X connect 5 0 2 0;
#X connect 6 0 4 0;
#X connect 7 0 1 0;
#X restore 527 29 pd cosine;
#X floatatom 527 -90 5 0 0 1 Frequency - -, f 5;
#X obj 716 -90 hradio 15 1 0 3 empty empty empty 50 8 0 10 -262144
-1 -1 0;
#X obj 716 -62 t f b;
#X obj 757 -61 s stopAll;
#X obj 527 -36 phasor~ 440;
#N canvas 0 23 767 547 sum 1;
#X obj 163 33 inlet~;
#X obj 545 157 switch~;
#X obj 553 72 inlet;
#X msg 483 43 0;
#X msg 551 109 1;
#X obj 484 19 r stopAll;
#X obj 219 199 wrap~;
#X obj 163 127 -~ 0.5;
#X obj 162 267 +~;
#X obj 204 266 -~;
#X text 151 300 sum and difference;
#X obj 219 227 -~;
#X obj 385 210 sig~ 0.5;
#X obj 162 403 outlet~;
#X connect 0 0 7 0;
#X connect 2 0 4 0;
#X connect 3 0 1 0;
#X connect 4 0 1 0;
#X connect 5 0 3 0;
#X connect 6 0 11 0;
#X connect 7 0 6 0;
#X connect 7 0 8 0;
#X connect 7 0 9 0;
#X connect 8 0 13 0;
#X connect 11 0 8 1;
#X connect 11 0 9 1;
#X connect 12 0 11 1;
#X restore 714 27 pd sum;
#X obj 716 -32 sel 0 1 2 3;
#N canvas 0 23 767 547 phasor 0;
#X obj 163 33 inlet~;
#X obj 545 157 switch~;
#X obj 553 72 inlet;
#X msg 483 43 0;
#X msg 551 109 1;
#X obj 484 19 r stopAll;
#X obj 162 403 outlet~;
#X connect 0 0 6 0;
#X connect 2 0 4 0;
#X connect 3 0 1 0;
#X connect 4 0 1 0;
#X connect 5 0 3 0;
#X restore 616 28 pd phasor;
#X obj 616 93 *~ 1;
#X floatatom 953 230 5 0 0 0 - - -, f 5;
#X floatatom 1060 230 5 0 0 0 - - -, f 5;
#X floatatom 1167 230 5 0 0 0 - - -, f 5;
#X obj 527 482 metro 100;
#X obj 938 597 dac~;
#X obj 938 541 *~ 0.3;
#X obj 953 -61 osc~ 0.01;
#X obj 1060 -61 osc~ 0.1;
#X obj 1167 -61 osc~ 1;
#X obj 953 280 osc~ 0.1;
#X obj 1060 279 osc~ 1;
#X obj 1167 279 osc~ 10;
#X connect 1 0 3 0;
#X connect 1 0 4 0;
#X connect 1 0 35 0;
#X connect 1 0 35 0;
#X connect 5 0 6 0;
#X connect 6 0 8 0;
#X connect 7 0 5 0;
#X connect 8 0 13 0;
#X connect 9 0 10 0;
#X connect 10 0 12 0;
#X connect 11 0 9 0;
#X connect 12 0 13 1;
#X connect 13 0 14 0;
#X connect 14 0 2 0;
#X connect 14 0 37 0;
#X connect 15 0 16 0;
#X connect 16 0 18 0;
#X connect 17 0 15 0;
#X connect 18 0 14 1;
#X connect 19 0 38 0;
#X connect 20 0 39 0;
#X connect 21 0 40 0;
#X connect 22 0 31 0;
#X connect 23 0 27 0;
#X connect 24 0 25 0;
#X connect 25 0 29 0;
#X connect 25 1 26 0;
#X connect 27 0 22 0;
#X connect 27 0 28 0;
#X connect 27 0 30 0;
#X connect 28 0 31 0;
#X connect 29 0 22 1;
#X connect 29 1 30 1;
#X connect 29 2 28 1;
#X connect 30 0 31 0;
#X connect 31 0 7 0;
#X connect 31 0 11 0;
#X connect 31 0 17 0;
#X connect 32 0 41 0;
#X connect 33 0 42 0;
#X connect 34 0 43 0;
#X connect 35 0 2 0;
#X connect 37 0 36 0;
#X connect 37 0 36 1;
#X connect 38 0 7 1;
#X connect 39 0 11 1;
#X connect 40 0 17 1;
#X connect 41 0 8 1;
#X connect 42 0 12 1;
#X connect 43 0 18 1;
