#N canvas 0 23 1440 816 10;
#N canvas 0 22 450 300 (subpatch) 0;
#X array \$0-array 100 float 0;
#X coords 0 1 100 -1 200 100 1;
#X restore 528 273 graph;
#X obj 527 447 loadbang;
#X obj 527 546 tabwrite~ \$0-array;
#X msg 538 483 \; pd dsp 1;
#X obj 938 132 wrap~;
#X obj 938 154 -~ 0.5;
#X obj 938 110 -~;
#X obj 938 471 *~;
#X obj 1045 132 wrap~;
#X obj 1045 154 -~ 0.5;
#X obj 1045 110 -~;
#X obj 1045 471 *~;
#X obj 938 503 +~;
#X obj 938 530 +~;
#X floatatom 953 -58 5 0 0 0 - - -, f 5;
#X floatatom 1060 -58 5 0 0 0 - - -, f 5;
#X obj 953 53 *~;
#X obj 1011 -11 tgl 15 0 empty empty empty 17 7 0 10 -262144 -1 -1
0 1;
#X obj 1060 53 *~;
#X obj 1118 -11 tgl 15 0 empty empty empty 17 7 0 10 -262144 -1 -1
0 1;
#X obj 1152 132 wrap~;
#X obj 1152 154 -~ 0.5;
#X obj 1152 110 -~;
#X obj 1152 471 *~;
#X floatatom 1167 -58 5 0 0 0 - - -, f 5;
#X obj 1167 53 *~;
#X obj 1225 -11 tgl 15 0 empty empty empty 17 7 0 10 -262144 -1 -1
0 1;
#X floatatom 953 289 5 0 0 0 - - -, f 5;
#X floatatom 1060 288 5 0 0 0 - - -, f 5;
#X obj 953 399 *~;
#X obj 1011 336 tgl 15 0 empty empty empty 17 7 0 10 -262144 -1 -1
0 1;
#X obj 1060 398 *~;
#X obj 1118 335 tgl 15 0 empty empty empty 17 7 0 10 -262144 -1 -1
0 1;
#X floatatom 1167 288 5 0 0 0 - - -, f 5;
#X obj 1167 398 *~;
#X obj 1225 335 tgl 15 0 empty empty empty 17 7 0 10 -262144 -1 -1
0 1;
#X floatatom 978 -128 5 0 0 0 - - -, f 5;
#X floatatom 1085 -128 5 0 0 0 - - -, f 5;
#X floatatom 1192 -128 5 0 0 0 - - -, f 5;
#N canvas 0 23 534 374 cosine 0;
#X obj 219 140 inlet~;
#X obj 225 260 outlet~;
#X obj 315 197 switch~;
#X obj 323 112 inlet;
#X msg 258 94 0;
#X msg 325 147 1;
#X obj 258 70 r stopAll;
#X obj 222 201 cos~;
#X connect 0 0 7 0;
#X connect 3 0 5 0;
#X connect 4 0 2 0;
#X connect 5 0 2 0;
#X connect 6 0 4 0;
#X connect 7 0 1 0;
#X restore 527 45 pd cosine;
#X floatatom 527 -74 5 0 0 1 Frequency - -, f 5;
#X obj 716 -49 hradio 15 1 0 3 empty empty empty 50 8 0 10 -262144
-1 -1 0;
#X obj 716 -21 t f b;
#X obj 757 -20 s stopAll;
#X obj 527 -20 phasor~ 440;
#N canvas 0 23 767 547 sum 0;
#X obj 163 33 inlet~;
#X obj 545 157 switch~;
#X obj 553 72 inlet;
#X msg 483 43 0;
#X msg 551 109 1;
#X obj 484 19 r stopAll;
#X obj 219 199 wrap~;
#X obj 163 127 -~ 0.5;
#X obj 162 267 +~;
#X obj 204 266 -~;
#X text 151 300 sum and difference;
#X obj 219 227 -~;
#X obj 385 210 sig~ 0.5;
#X obj 162 403 outlet~;
#X connect 0 0 7 0;
#X connect 2 0 4 0;
#X connect 3 0 1 0;
#X connect 4 0 1 0;
#X connect 5 0 3 0;
#X connect 6 0 11 0;
#X connect 7 0 6 0;
#X connect 7 0 8 0;
#X connect 7 0 9 0;
#X connect 8 0 13 0;
#X connect 11 0 8 1;
#X connect 11 0 9 1;
#X connect 12 0 11 1;
#X restore 714 43 pd sum;
#X obj 716 9 sel 0 1 2 3;
#N canvas 0 23 767 547 phasor 0;
#X obj 163 33 inlet~;
#X obj 545 157 switch~;
#X obj 553 72 inlet;
#X msg 483 43 0;
#X msg 551 109 1;
#X obj 484 19 r stopAll;
#X obj 162 403 outlet~;
#X connect 0 0 6 0;
#X connect 2 0 4 0;
#X connect 3 0 1 0;
#X connect 4 0 1 0;
#X connect 5 0 3 0;
#X restore 616 44 pd phasor;
#X obj 616 93 *~ 1;
#X floatatom 978 209 5 0 0 0 - - -, f 5;
#X floatatom 1085 209 5 0 0 0 - - -, f 5;
#X obj 1225 37 abs;
#X obj 1118 37 abs;
#X obj 1011 37 abs;
#X obj 1225 382 abs;
#X obj 1118 382 abs;
#X obj 1011 383 abs;
#X obj 1225 363 - 1;
#X obj 1118 363 - 1;
#X obj 1011 363 - 1;
#X obj 1225 18 - 1;
#X obj 1118 18 - 1;
#X obj 1011 18 - 1;
#X floatatom 1192 209 5 0 0 0 - - -, f 5;
#X obj 527 522 metro 100;
#X obj 938 645 dac~;
#X obj 938 581 *~ 0.3;
#X obj 978 399 *~ 1;
#X obj 1085 398 *~ 1;
#X obj 1192 398 *~ 1;
#X obj 1192 53 *~ 1;
#X obj 1085 53 *~ 1;
#X obj 978 53 *~ 1;
#X obj 715 -93 loadbang;
#X msg 715 -72 2;
#X obj 1192 -93 osc~ 0.3;
#X obj 1085 -93 osc~ 0.2;
#X obj 978 -93 osc~ 0.1;
#X obj 953 310 sig~ 0.33;
#X obj 1060 309 sig~ 0.66;
#X obj 1167 309 sig~ 0.99;
#X obj 1167 -37 sig~ 0.3;
#X obj 1060 -37 sig~ 0.2;
#X obj 953 -37 sig~ 0.1;
#X obj 1192 248 osc~ 10;
#X obj 1085 248 osc~ 1;
#X obj 978 248 osc~ 0.1;
#X connect 1 0 3 0;
#X connect 1 0 64 0;
#X connect 1 0 64 0;
#X connect 4 0 5 0;
#X connect 5 0 7 0;
#X connect 6 0 4 0;
#X connect 7 0 12 0;
#X connect 8 0 9 0;
#X connect 9 0 11 0;
#X connect 10 0 8 0;
#X connect 11 0 12 1;
#X connect 12 0 13 0;
#X connect 13 0 2 0;
#X connect 13 0 66 0;
#X connect 14 0 83 0;
#X connect 15 0 82 0;
#X connect 16 0 6 1;
#X connect 17 0 16 1;
#X connect 17 0 62 0;
#X connect 18 0 10 1;
#X connect 19 0 18 1;
#X connect 19 0 61 0;
#X connect 20 0 21 0;
#X connect 21 0 23 0;
#X connect 22 0 20 0;
#X connect 23 0 13 1;
#X connect 24 0 81 0;
#X connect 25 0 22 1;
#X connect 26 0 25 1;
#X connect 26 0 60 0;
#X connect 27 0 78 0;
#X connect 28 0 79 0;
#X connect 29 0 7 1;
#X connect 30 0 29 1;
#X connect 30 0 59 0;
#X connect 31 0 11 1;
#X connect 32 0 31 1;
#X connect 32 0 58 0;
#X connect 33 0 80 0;
#X connect 34 0 23 1;
#X connect 35 0 34 1;
#X connect 35 0 57 0;
#X connect 36 0 77 0;
#X connect 37 0 76 0;
#X connect 38 0 75 0;
#X connect 39 0 48 0;
#X connect 40 0 44 0;
#X connect 41 0 42 0;
#X connect 42 0 46 0;
#X connect 42 1 43 0;
#X connect 44 0 39 0;
#X connect 44 0 45 0;
#X connect 44 0 47 0;
#X connect 45 0 48 0;
#X connect 46 0 39 1;
#X connect 46 1 47 1;
#X connect 46 2 45 1;
#X connect 47 0 48 0;
#X connect 48 0 6 0;
#X connect 48 0 10 0;
#X connect 48 0 22 0;
#X connect 49 0 86 0;
#X connect 50 0 85 0;
#X connect 51 0 70 1;
#X connect 52 0 71 1;
#X connect 53 0 72 1;
#X connect 54 0 69 1;
#X connect 55 0 68 1;
#X connect 56 0 67 1;
#X connect 57 0 54 0;
#X connect 58 0 55 0;
#X connect 59 0 56 0;
#X connect 60 0 51 0;
#X connect 61 0 52 0;
#X connect 62 0 53 0;
#X connect 63 0 84 0;
#X connect 64 0 2 0;
#X connect 66 0 65 0;
#X connect 66 0 65 1;
#X connect 67 0 7 1;
#X connect 68 0 11 1;
#X connect 69 0 23 1;
#X connect 70 0 22 1;
#X connect 71 0 10 1;
#X connect 72 0 6 1;
#X connect 73 0 74 0;
#X connect 74 0 41 0;
#X connect 75 0 70 0;
#X connect 76 0 71 0;
#X connect 77 0 72 0;
#X connect 78 0 29 0;
#X connect 79 0 31 0;
#X connect 80 0 34 0;
#X connect 81 0 25 0;
#X connect 82 0 18 0;
#X connect 83 0 16 0;
#X connect 84 0 69 0;
#X connect 85 0 68 0;
#X connect 86 0 67 0;
